<?xml version="1.0" standalone="no"?>
<!DOCTYPE svg PUBLIC "-//W3C//DTD SVG 20010904//EN"
 "http://www.w3.org/TR/2001/REC-SVG-20010904/DTD/svg10.dtd">
<svg version="1.0" xmlns="http://www.w3.org/2000/svg"
 width="260.000000pt" height="260.000000pt" viewBox="0 0 260.000000 260.000000"
 preserveAspectRatio="xMidYMid meet">
<metadata>
Created by potrace 1.11, written by Peter Selinger 2001-2013
</metadata>
<g transform="translate(0.000000,260.000000) scale(0.100000,-0.100000)"
fill="#000000" stroke="none">
<path d="M204 2573 c-4 -16 -12 -31 -17 -35 -6 -3 10 -16 34 -28 24 -13 54
-33 66 -46 22 -24 50 -34 38 -13 -5 7 5 9 26 7 19 -2 32 -7 31 -12 -5 -13 26
-29 39 -21 6 4 3 12 -8 21 -16 12 -14 13 20 14 27 0 37 4 34 13 -2 6 -12 10
-22 9 -16 -3 -17 -1 -6 12 10 11 18 13 31 6 12 -6 21 -6 24 -1 7 10 -48 26
-62 17 -4 -2 -6 11 -4 31 5 43 -13 38 -23 -7 -5 -22 -10 -27 -23 -23 -15 6
-15 5 -3 -10 16 -20 6 -23 -13 -5 -10 9 -11 20 -4 40 18 50 7 58 -76 58 -74 0
-76 -1 -82 -27z"/>
<path d="M580 2581 c0 -11 -6 -21 -12 -24 -29 -10 53 -29 135 -30 64 -2 86 1
83 10 -3 7 1 10 10 6 10 -4 12 0 8 11 -3 9 -1 16 5 16 6 0 11 -5 11 -11 0 -6
7 -8 16 -5 8 3 12 2 9 -4 -3 -6 -1 -10 4 -10 6 0 11 4 11 8 0 4 8 8 18 9 71 6
86 10 90 22 3 8 0 11 -7 7 -6 -4 -11 -3 -11 1 0 15 -78 12 -84 -3 -7 -19 -36
-18 -36 1 0 13 -21 15 -125 15 -117 0 -125 -1 -125 -19z"/>
<path d="M2171 2595 c1 -19 18 -51 18 -35 0 8 -4 22 -9 30 -5 8 -9 11 -9 5z"/>
<path d="M2190 2590 c0 -5 6 -10 14 -10 8 0 31 -20 50 -44 35 -42 46 -63 26
-51 -35 22 20 -39 63 -70 17 -12 14 -45 -4 -45 -5 0 -9 -5 -9 -11 0 -7 11 -9
27 -6 31 6 53 -1 53 -15 0 -6 -9 -8 -20 -5 -12 3 -18 1 -14 -5 4 -6 -1 -8 -15
-3 -12 4 -21 2 -21 -4 0 -6 12 -11 26 -11 l27 0 -25 -20 c-24 -19 -38 -77 -15
-63 5 3 7 1 4 -4 -4 -6 4 -39 18 -74 13 -35 25 -55 25 -44 l1 20 9 -20 c12
-28 12 -43 -1 -25 -8 12 -9 9 -5 -11 23 -105 29 -280 11 -310 -3 -5 -3 -25 1
-44 7 -37 8 -37 64 -17 13 5 13 3 1 -11 -7 -9 -24 -17 -36 -17 -12 0 -33 -9
-47 -20 -19 -14 -28 -16 -36 -8 -9 9 -12 9 -12 1 0 -17 -40 -11 -50 7 -4 8 -4
42 1 74 7 39 6 69 0 85 -6 14 -12 40 -15 56 -2 17 -3 -18 -2 -77 1 -59 -2
-101 -6 -95 -4 7 -8 50 -9 97 0 47 -4 94 -8 105 -8 18 -7 -42 3 -178 2 -26 11
-55 20 -66 11 -12 14 -21 7 -26 -6 -3 -11 -2 -11 4 0 6 -6 8 -14 5 -26 -10
-62 57 -86 156 -12 52 -28 106 -36 120 -16 31 -17 26 -4 -20 6 -19 17 -73 26
-119 8 -47 20 -92 26 -100 11 -14 10 -14 -5 -1 -9 9 -25 53 -35 100 -16 77
-48 158 -57 148 -2 -2 4 -28 15 -58 23 -68 49 -183 39 -173 -4 4 -15 36 -24
71 -8 34 -25 77 -36 95 -12 18 -18 23 -14 12 25 -67 33 -94 39 -125 3 -20 -4
-7 -17 29 -21 61 -47 93 -43 54 1 -13 -6 -18 -23 -17 -21 1 -22 -1 -7 -11 9
-7 16 -18 16 -25 0 -10 -3 -10 -16 1 -13 10 -17 10 -25 -2 -5 -8 -7 -22 -5
-31 4 -19 -19 -32 -37 -21 -9 5 -9 3 -1 -8 16 -20 26 -69 15 -69 -5 0 -12 7
-15 16 -4 9 -9 14 -13 11 -3 -4 0 -13 6 -21 7 -8 11 -27 9 -43 l-3 -28 -17 35
c-19 38 -37 111 -38 148 0 12 10 32 21 43 17 17 19 23 8 30 -10 6 -11 11 -2
20 8 8 14 6 23 -11 9 -16 14 -19 25 -10 10 8 15 7 18 -7 3 -10 5 -2 4 17 -1
21 2 34 9 33 6 -1 10 9 8 23 -3 33 -13 42 -24 24 -6 -8 -10 -10 -10 -4 0 6 7
17 15 24 8 7 15 9 15 5 0 -4 16 13 35 38 35 46 44 63 25 52 -14 -9 -12 5 5 35
8 14 14 19 15 11 0 -21 16 -2 24 29 l7 25 -14 -23 c-7 -12 -16 -20 -19 -16 -4
3 -13 -7 -21 -23 -22 -41 -56 -74 -69 -67 -6 4 -8 3 -5 -3 8 -13 -69 -21 -105
-12 -21 6 -22 6 -3 11 11 3 7 4 -10 3 -38 -4 -159 51 -149 67 5 8 2 9 -9 5
-10 -4 -16 -2 -14 5 1 6 -4 13 -12 16 -9 3 -11 0 -6 -8 5 -9 4 -11 -4 -6 -6 4
-9 11 -6 16 3 5 -6 17 -21 27 -14 10 -41 30 -59 46 -37 31 -50 34 -41 11 3 -8
-13 1 -36 21 -26 21 -48 33 -58 30 -12 -5 -12 -4 -3 6 9 9 20 6 48 -15 20 -16
39 -26 42 -23 7 8 -75 66 -125 89 -31 14 -67 20 -125 20 -73 1 -77 2 -32 8 28
4 44 8 38 8 -7 1 -13 6 -13 11 0 6 16 3 35 -5 39 -16 57 -18 35 -4 -12 8 -12
10 5 10 17 0 17 2 5 10 -21 13 -33 12 -24 -2 5 -8 2 -9 -12 -3 -10 4 -41 11
-69 15 -46 7 -47 7 -15 10 19 2 -1 6 -45 9 -52 4 -94 2 -119 -6 -45 -15 -83
-17 -51 -3 30 13 -1 11 -75 -5 l-65 -15 55 6 c30 3 52 3 49 -1 -14 -14 -183
-36 -281 -37 -60 0 -108 -4 -108 -8 0 -11 44 -19 109 -19 30 -1 57 -3 60 -7 3
-3 -67 -4 -156 -2 -155 3 -162 4 -187 27 -17 16 -26 20 -26 11 0 -11 -3 -11
-12 -2 -27 27 -30 10 -3 -18 31 -32 27 -54 -4 -26 -11 10 -24 15 -30 12 -5 -4
-23 8 -39 26 -16 18 -42 47 -56 63 -20 22 -24 24 -16 8 5 -12 39 -53 75 -90
62 -65 65 -66 84 -49 12 11 21 14 26 7 3 -6 32 -11 63 -11 41 0 53 -3 42 -10
-8 -5 -31 -10 -50 -10 -27 0 -32 -3 -20 -11 11 -7 4 -8 -25 -3 -72 12 -81 19
-215 164 -23 25 -11 7 27 -40 77 -94 142 -141 197 -143 39 -1 48 -12 18 -21
-25 -8 -134 42 -204 94 -31 24 -76 67 -98 98 -41 54 -49 79 -15 45 13 -13 17
-14 13 -3 -2 8 2 21 9 29 12 11 17 11 32 -3 41 -37 28 -12 -18 34 -28 28 -52
50 -54 50 -7 0 -2 -54 6 -67 6 -9 3 -11 -7 -7 -9 4 -16 1 -16 -6 0 -10 -3 -10
-15 0 -23 19 -19 -12 5 -40 23 -27 20 -36 -8 -21 -17 9 -20 7 -25 -14 -2 -14
0 -28 4 -31 5 -3 9 -10 9 -15 0 -6 -4 -8 -9 -5 -5 3 -15 -2 -22 -11 -12 -15
-12 -16 3 -10 13 4 16 1 13 -16 -3 -11 2 -29 11 -38 14 -16 14 -20 0 -42 -9
-13 -14 -32 -10 -41 3 -9 2 -16 -3 -16 -5 0 -10 -19 -12 -42 -1 -24 -6 -47
-12 -53 -5 -5 -9 -20 -9 -33 0 -13 -5 -33 -12 -45 -20 -38 -21 -52 -24 -464
-2 -329 0 -403 11 -403 18 0 62 -37 53 -45 -3 -4 -18 1 -32 11 -15 9 -29 14
-32 12 -4 -5 42 -36 71 -49 34 -14 180 -108 183 -118 2 -6 -20 2 -48 19 -29
17 -56 30 -61 28 -4 -2 19 -19 51 -38 57 -33 74 -60 50 -75 -6 -4 -31 5 -55
20 -25 14 -45 21 -45 15 0 -5 5 -10 10 -10 6 0 10 -4 10 -10 0 -16 -12 -12
-76 22 -42 23 -54 34 -40 36 10 2 31 -5 47 -17 32 -24 39 -26 39 -9 0 6 -3 9
-6 5 -3 -3 -15 3 -27 14 -11 10 -27 19 -35 19 -10 0 -12 7 -7 27 3 15 11 30
16 34 13 8 -9 24 -41 32 -25 6 -25 5 -4 -9 31 -22 21 -58 -15 -51 -24 5 -25 4
-6 -9 10 -8 23 -14 28 -14 4 0 5 -5 2 -10 -4 -6 -16 -8 -28 -5 -22 6 -22 6 1
-12 24 -20 21 -35 -6 -26 -15 4 -16 3 -1 -9 15 -12 15 -22 2 -58 -3 -8 -8 -35
-10 -60 -4 -45 -4 -45 44 -70 111 -57 163 -95 163 -117 0 -37 -19 -37 -78 0
-61 37 -117 67 -127 67 -19 0 3 -19 50 -45 30 -16 55 -33 55 -37 0 -12 -4 -10
-51 17 -47 26 -59 30 -59 17 0 -5 40 -31 90 -58 49 -27 90 -55 90 -62 0 -10
-8 -9 -32 6 -94 55 -148 82 -148 73 0 -5 41 -33 91 -62 l91 -52 -7 -36 c-12
-61 -15 -62 -93 -14 -41 25 -77 42 -80 38 -4 -4 1 -12 12 -19 63 -38 77 -73
17 -41 -24 12 -31 13 -31 2 0 -7 32 -28 70 -47 39 -19 70 -40 70 -48 0 -17
-29 -9 -86 24 -45 26 -54 29 -54 14 0 -5 29 -25 65 -45 67 -38 71 -44 59 -103
-7 -34 -14 -34 -76 5 -44 27 -48 28 -48 9 0 -7 25 -26 55 -42 30 -16 55 -35
55 -41 0 -17 -3 -17 -60 12 -40 20 -50 22 -50 10 0 -8 23 -26 50 -40 28 -14
50 -32 50 -40 0 -12 -10 -10 -50 10 l-51 26 4 -28 4 -28 251 -3 251 -3 7 25
c4 16 11 23 20 19 11 -4 11 -7 -1 -20 -20 -19 -19 -21 10 -20 15 0 22 4 18 11
-3 6 0 6 8 -1 10 -10 228 -13 1021 -13 l1008 0 0 886 c0 705 -3 884 -12 878
-10 -6 -9 -3 0 8 10 13 11 22 3 37 -6 11 -12 31 -13 45 -1 15 -6 26 -11 26 -4
0 -7 6 -6 13 1 6 -2 20 -6 31 -5 11 -3 26 4 37 9 15 8 19 -4 19 -8 0 -15 9
-15 19 0 11 -5 23 -10 26 -6 4 -10 14 -8 23 1 10 -2 24 -7 32 -5 8 -10 30 -12
49 -2 19 -8 40 -12 46 -10 12 -42 129 -46 165 -1 14 -4 27 -5 30 -1 3 -2 13
-1 23 1 9 -3 17 -9 17 -7 0 -9 8 -5 20 3 11 2 20 -3 20 -9 0 -21 26 -27 55 -1
6 -7 23 -13 38 -7 16 -12 35 -12 43 0 11 -18 14 -90 14 -53 0 -90 -4 -90 -10z
m145 -120 c3 -5 2 -10 -4 -10 -5 0 -13 5 -16 10 -3 6 -2 10 4 10 5 0 13 -4 16
-10z m-1142 -107 c-7 -2 -21 -2 -30 0 -10 3 -4 5 12 5 17 0 24 -2 18 -5z m-70
-10 c-7 -2 -19 -2 -25 0 -7 3 -2 5 12 5 14 0 19 -2 13 -5z m-53 -13 c-8 -5
-26 -9 -40 -9 -23 1 -23 2 5 9 43 11 52 11 35 0z m-887 -40 c9 -11 23 -20 31
-20 7 0 19 -7 26 -15 11 -13 10 -14 -5 -9 -13 5 -16 4 -11 -4 4 -7 14 -12 22
-12 17 0 114 -48 114 -56 0 -3 -8 -3 -17 1 -14 5 -15 4 -6 -6 16 -16 58 -22
147 -20 37 0 76 -4 85 -9 12 -7 7 -10 -24 -11 -35 -1 -37 -2 -15 -9 47 -15
-39 -11 -105 5 -76 19 -83 19 -59 -1 18 -15 18 -15 -3 -9 -17 5 -23 2 -23 -10
0 -9 -7 -23 -16 -32 -8 -9 -13 -22 -10 -29 3 -8 2 -13 -2 -13 -18 3 -32 -2
-32 -11 0 -5 8 -11 18 -11 15 -1 15 -2 0 -6 -17 -4 -41 -57 -31 -67 4 -3 1 -6
-6 -6 -8 0 -11 -7 -7 -15 3 -8 0 -15 -5 -15 -6 0 -9 -9 -6 -20 6 -22 -12 -27
-31 -8 -17 17 -15 31 3 24 12 -4 14 0 9 18 -3 13 -1 27 5 30 7 5 9 0 5 -11 -5
-15 -4 -15 5 -3 7 11 5 20 -7 34 -16 18 -16 19 2 12 16 -5 17 -4 6 9 -15 18
-23 68 -9 59 5 -3 9 -1 9 5 0 6 -12 14 -26 17 -18 5 -22 9 -13 15 7 4 18 4 25
-2 8 -7 10 -2 6 17 -3 15 -12 29 -21 31 -9 2 -21 15 -27 27 -11 23 -10 23 20
15 17 -5 32 -9 34 -9 1 0 -2 9 -8 20 -6 11 -15 20 -21 20 -6 0 -7 -4 -4 -10
11 -17 0 -11 -34 19 -22 20 -28 31 -19 34 8 4 7 6 -4 6 -19 1 -26 31 -8 31 13
0 50 -37 50 -50 0 -5 5 -10 10 -10 17 0 11 19 -11 38 -24 20 -43 52 -32 52 5
0 16 -9 26 -20z m710 3 c-7 -2 -19 -2 -25 0 -7 3 -2 5 12 5 14 0 19 -2 13 -5z
m250 0 c-7 -2 -19 -2 -25 0 -7 3 -2 5 12 5 14 0 19 -2 13 -5z m-300 -10 c-7
-2 -21 -2 -30 0 -10 3 -4 5 12 5 17 0 24 -2 18 -5z m87 -6 c-25 -6 -47 -14
-50 -17 -19 -27 -175 -83 -232 -84 -25 -1 -50 -4 -54 -9 -14 -14 2 -16 40 -6
21 6 40 8 43 5 11 -10 -75 -26 -98 -18 l-24 9 30 15 c17 9 81 28 143 44 61 15
112 32 112 37 0 4 -4 6 -8 3 -4 -2 -48 -10 -98 -16 -49 -6 -102 -16 -118 -21
-18 -5 -33 -6 -39 0 -13 13 10 18 153 36 69 8 139 19 155 24 17 5 44 9 60 9
24 0 22 -2 -15 -11z m140 2 c0 -5 -4 -8 -8 -5 -7 4 -74 -9 -152 -29 -20 -5
-22 -4 -8 4 17 12 120 39 151 40 9 1 17 -4 17 -10z m117 5 c-3 -3 -12 -4 -19
-1 -8 3 -5 6 6 6 11 1 17 -2 13 -5z m173 -9 l25 -15 -30 6 c-33 7 -58 24 -34
24 7 -1 25 -7 39 -15z m-905 -13 c-3 -3 -11 0 -18 7 -9 10 -8 11 6 5 10 -3 15
-9 12 -12z m980 -12 c3 -6 0 -10 -7 -10 -15 0 -38 19 -38 32 0 10 36 -8 45
-22z m-1035 -10 c0 -15 -5 -12 -26 11 -19 22 -19 22 4 10 12 -6 22 -16 22 -21z
m118 13 c-10 -2 -26 -2 -35 0 -10 3 -2 5 17 5 19 0 27 -2 18 -5z m25 -60 c-7
-2 -21 -2 -30 0 -10 3 -4 5 12 5 17 0 24 -2 18 -5z m1038 -69 c9 -11 2 -9 -18
6 -18 13 -33 25 -33 27 0 8 38 -17 51 -33z m-946 -4 c-11 -5 -33 -8 -50 -8
-29 1 -29 1 5 8 49 10 69 10 45 0z m1025 -26 c0 -2 -9 0 -20 6 -11 6 -20 13
-20 16 0 2 9 0 20 -6 11 -6 20 -13 20 -16z m-1229 -2 c-13 -2 -27 0 -32 5 -6
6 3 7 23 4 28 -4 29 -6 9 -9z m1344 -96 c32 -13 34 -16 10 -11 -34 7 -135 66
-156 91 -7 8 14 -2 47 -23 32 -22 77 -47 99 -57z m-1261 75 c6 -9 -54 -25 -62
-16 -3 3 3 6 14 6 10 1 1 5 -21 9 l-40 7 52 2 c28 0 54 -3 57 -8z m-74 -33 c0
-5 -8 -4 -19 1 -10 6 -22 7 -26 3 -5 -4 -5 -2 -2 5 8 13 47 6 47 -9z m2000
-32 c0 -26 -6 -18 -14 19 -5 22 -4 26 4 15 5 -8 10 -24 10 -34z m-380 5 c0 -4
-12 -20 -26 -35 -24 -23 -34 -26 -93 -24 l-66 1 67 6 c57 5 69 10 88 34 22 28
30 33 30 18z m-205 -41 c13 -6 15 -9 5 -9 -8 0 -22 4 -30 9 -18 12 -2 12 25 0z
m592 -87 c-2 -21 -4 -6 -4 32 0 39 2 55 4 38 2 -18 2 -50 0 -70z m-1257 48
l-35 -15 30 -4 c16 -2 34 -11 41 -20 8 -11 30 -16 73 -17 41 -1 58 2 52 8 -6
6 -24 10 -41 10 -38 0 -39 13 -2 20 17 4 31 1 38 -9 6 -8 21 -14 33 -14 12 0
24 -6 27 -14 3 -8 16 -12 35 -10 20 3 32 -1 36 -12 3 -8 21 -30 39 -50 37 -37
47 -24 17 22 -14 22 -14 27 -2 35 21 13 32 11 25 -6 -3 -9 0 -15 10 -15 12 0
15 -7 11 -26 -3 -18 -1 -24 9 -20 11 4 10 -1 -2 -20 -18 -27 -10 -48 9 -24 7
8 21 22 31 30 18 14 19 13 14 -7 -5 -17 -2 -23 11 -23 9 0 22 5 29 12 15 15
42 -7 42 -33 0 -11 7 -19 15 -19 11 0 12 -5 5 -25 -6 -17 -5 -32 5 -51 8 -15
12 -32 9 -36 -3 -5 0 -17 8 -26 22 -26 57 -102 46 -102 -5 0 -4 -9 2 -19 5
-11 10 -35 10 -54 0 -19 7 -40 15 -47 8 -7 13 -23 11 -36 -3 -13 2 -28 10 -35
8 -7 20 -22 26 -33 9 -17 8 -19 -3 -8 -21 20 -27 14 -22 -21 2 -18 -3 -53 -12
-78 -9 -24 -17 -50 -17 -56 -1 -7 -5 -13 -9 -13 -6 0 -23 -65 -24 -97 0 -6 -8
-19 -17 -30 -8 -10 -19 -33 -23 -51 -4 -19 -15 -36 -25 -40 -10 -4 -19 -11
-20 -17 0 -5 -12 -9 -25 -7 -20 3 -23 0 -17 -20 5 -19 7 -20 10 -5 4 21 28 17
25 -4 -1 -8 -9 -32 -18 -54 -13 -32 -15 -34 -12 -11 4 26 3 28 -25 22 -24 -5
-31 -2 -35 14 -3 11 -9 20 -13 20 -5 0 -8 13 -8 30 1 16 5 27 10 24 4 -3 8 0
8 5 0 6 -4 11 -10 11 -5 0 -10 7 -10 15 0 8 4 15 10 15 5 0 9 3 8 8 -3 14 25
92 34 92 4 0 8 7 8 15 0 9 14 42 30 75 35 69 39 96 9 60 l-21 -25 7 30 c5 24
4 28 -6 18 -7 -7 -19 -13 -27 -13 -8 0 -24 -12 -35 -27 -30 -38 -77 -134 -77
-158 0 -17 -2 -18 -11 -5 -8 12 -9 10 -4 -8 8 -26 -22 -122 -37 -122 -6 0 -9
-3 -6 -6 4 -3 15 -1 25 4 16 9 18 6 19 -23 0 -25 9 -40 32 -60 18 -15 32 -33
32 -41 0 -8 5 -14 10 -14 6 0 10 -9 10 -21 0 -11 18 -57 40 -101 22 -45 40
-89 40 -98 0 -10 7 -23 15 -30 17 -14 19 -48 5 -70 -8 -13 -10 -12 -10 3 0 10
-6 25 -12 32 -7 8 -24 28 -38 45 -13 16 -32 30 -41 30 -11 0 -20 11 -24 30 -9
43 -22 37 -22 -10 0 -36 2 -40 24 -40 16 0 26 -8 33 -24 4 -13 20 -26 34 -30
14 -3 27 -12 27 -19 1 -6 3 -22 4 -35 3 -26 12 -38 22 -28 4 4 1 12 -7 17 -13
9 -13 10 0 6 22 -6 41 -48 29 -64 -6 -7 -8 -16 -5 -21 8 -13 -17 -72 -30 -72
-7 0 -14 -5 -16 -11 -5 -15 -70 -27 -114 -20 -30 5 -40 12 -45 31 -4 14 -7 20
-8 13 -1 -6 -10 -9 -21 -6 -36 10 -14 77 40 119 11 10 12 15 2 27 -10 12 -9
16 8 20 18 5 20 11 16 54 -2 26 -5 49 -6 51 -1 1 -3 5 -5 10 -6 22 -20 48 -29
54 -7 5 -4 8 6 8 11 0 15 5 12 15 -4 8 -10 12 -15 9 -5 -3 -12 2 -15 10 -10
26 -27 18 -20 -9 4 -14 2 -25 -4 -25 -5 0 -10 -4 -10 -10 0 -5 8 -10 18 -10
22 0 34 -9 26 -22 -3 -4 -15 -1 -27 7 -12 8 -30 15 -40 15 -14 0 -17 5 -12 20
7 23 -1 26 -21 6 -21 -22 -17 -35 14 -42 53 -12 62 -16 57 -24 -7 -12 -57 4
-111 34 l-45 25 23 -29 c14 -17 37 -32 58 -36 19 -4 44 -13 55 -22 l20 -14
-20 5 c-11 2 -29 8 -40 11 -11 4 -2 -3 20 -15 22 -12 48 -29 58 -37 18 -16 17
-17 -9 -24 -15 -4 -33 -4 -38 1 -22 16 -56 20 -56 5 0 -8 -7 -14 -16 -14 -11
0 -13 6 -9 19 3 11 1 22 -4 26 -16 9 -6 -50 13 -79 21 -32 21 -33 -9 -40 -19
-5 -25 -13 -25 -33 0 -29 -35 -73 -57 -73 -8 0 -13 8 -11 17 2 10 -4 19 -12
19 -8 1 -20 2 -27 3 -6 0 -9 10 -6 21 6 23 -8 26 -39 9 -17 -9 -23 -8 -30 5
-13 24 -26 19 -21 -7 3 -13 -2 -29 -10 -36 -13 -10 -18 -8 -30 10 -9 11 -20
18 -26 14 -6 -3 -11 -2 -11 3 0 13 -57 35 -97 37 -30 2 -32 0 -27 -21 5 -18 2
-24 -11 -24 -11 0 -15 -5 -11 -15 3 -9 0 -15 -9 -15 -9 0 -15 10 -16 23 0 19
-1 20 -8 4 -6 -17 -8 -16 -18 6 -7 14 -15 42 -19 62 -3 20 -13 39 -20 42 -8 3
-14 13 -14 23 0 41 -30 72 -30 33 0 -10 -8 -27 -17 -38 -14 -18 -15 -18 -9 -2
3 10 6 25 6 32 0 8 9 22 19 32 11 10 22 36 26 58 4 22 15 63 25 91 11 29 17
54 14 57 -3 3 1 18 9 33 l14 27 7 -49 c4 -27 14 -63 23 -81 l17 -31 23 43 c13
24 23 49 23 55 0 17 32 45 67 59 27 11 36 10 65 -6 18 -10 36 -22 40 -28 10
-14 21 2 14 21 -3 9 -15 18 -26 21 -11 3 -17 10 -14 15 3 5 13 7 21 4 8 -4 11
-1 7 5 -3 6 -15 8 -26 6 -14 -4 -18 -2 -14 9 3 8 1 14 -4 14 -5 0 -7 6 -4 14
3 8 1 24 -6 35 -17 33 0 25 49 -21 50 -49 46 -35 -11 33 -21 26 -49 49 -63 51
-34 7 -146 -34 -162 -59 -8 -11 -16 -30 -18 -42 -7 -35 -28 -91 -35 -91 -4 0
-7 -6 -7 -12 -1 -23 -41 -166 -53 -188 -17 -31 -25 -16 -11 18 7 16 21 60 31
98 41 152 94 274 119 274 9 0 45 10 80 22 l64 23 31 -40 c52 -66 105 -121 106
-108 0 7 -9 20 -19 30 -11 10 -35 49 -54 87 -29 59 -39 70 -72 82 -35 12 -41
11 -63 -7 -14 -10 -36 -19 -49 -19 -13 0 -22 -4 -19 -9 3 -5 -7 -14 -24 -19
-21 -8 -32 -8 -36 0 -5 7 -11 2 -16 -12 -10 -27 -26 -17 -30 20 -3 22 1 25 67
35 39 6 82 19 98 29 25 17 40 35 16 21 -5 -4 -22 -8 -37 -10 l-26 -3 22 19
c13 10 44 21 70 24 69 9 92 23 92 57 0 23 -4 28 -24 28 -12 0 -35 11 -49 24
-14 13 -28 22 -31 19 -3 -3 -23 -5 -45 -5 -22 0 -43 -3 -46 -9 -9 -14 -67 -11
-99 6 -25 13 -27 13 -22 0 7 -18 2 -19 -23 -3 -18 11 -18 15 -6 45 8 19 29 54
46 78 23 32 30 51 26 71 -2 15 1 41 8 58 18 44 22 162 5 158 -9 -2 -11 7 -8
28 4 29 -5 40 -17 20 -8 -14 -45 -13 -45 1 0 8 -5 8 -15 -1 -12 -10 -15 -10
-15 4 0 20 -35 56 -55 56 -8 0 -15 7 -15 16 0 12 -7 15 -27 11 -19 -3 -32 1
-45 17 l-19 21 6 -22 c5 -19 2 -23 -15 -23 -14 0 -19 -4 -14 -12 14 -23 11
-44 -7 -44 -13 0 -15 4 -8 13 7 8 7 18 -1 30 -9 16 -10 15 -4 -6 6 -22 4 -23
-20 -17 -36 9 -33 -10 4 -29 32 -16 42 -32 14 -21 -10 4 -25 -1 -36 -11 -18
-17 -19 -18 -1 -24 15 -6 14 -8 -6 -8 -20 -1 -21 -3 -11 -16 10 -12 10 -15 -1
-15 -10 0 -14 -14 -15 -50 0 -44 2 -50 20 -51 17 -1 18 -2 3 -6 -9 -2 -17 -9
-17 -15 0 -5 7 -8 15 -4 17 6 21 -19 5 -29 -6 -4 -8 -10 -6 -14 3 -4 -3 -17
-13 -27 -10 -11 -22 -37 -27 -58 -6 -27 -9 7 -8 118 1 86 4 159 7 163 4 3 3
11 -2 17 -18 24 -21 64 -5 70 13 5 14 9 4 21 -10 12 -9 15 4 15 19 0 21 21 4
39 -11 11 -10 12 1 6 11 -6 12 1 6 34 -6 34 -4 41 10 41 9 0 14 4 11 9 -3 5 8
14 24 20 21 7 30 17 30 31 0 12 4 19 9 15 6 -3 6 -17 -1 -36 -13 -37 0 -56 28
-41 11 5 43 10 73 11 63 1 82 10 25 12 -21 1 -31 3 -21 6 9 2 15 8 12 13 -3 5
4 11 15 15 11 4 18 11 15 16 -4 5 12 9 33 9 32 0 41 -4 47 -22 4 -13 7 -28 6
-35 -1 -6 4 -15 10 -19 8 -5 9 -3 5 5 -5 7 0 18 10 26 18 13 18 14 2 15 -10 0
-18 5 -18 10 0 16 57 12 74 -5 21 -22 29 -19 22 9 -4 15 0 28 8 35 12 10 15 8
18 -10 2 -12 9 -24 17 -27 9 -3 11 0 7 7 -6 9 0 10 21 5 25 -7 27 -6 14 9 -12
15 -10 17 19 17 28 0 31 -2 20 -15 -7 -8 -9 -15 -6 -15 4 0 19 14 33 30 28 33
43 38 43 14 0 -13 3 -14 13 -5 8 6 18 7 22 3 5 -4 5 -2 2 4 -8 14 73 55 88 46
5 -3 -6 -13 -25 -21z m-1003 -3 c-3 -8 -6 -5 -6 6 -1 11 2 17 5 13 3 -3 4 -12
1 -19z m703 2 c0 -5 -7 -7 -15 -4 -8 4 -15 8 -15 10 0 2 7 4 15 4 8 0 15 -4
15 -10z m105 -20 c-3 -5 -10 -10 -16 -10 -5 0 -9 5 -9 10 0 6 7 10 16 10 8 0
12 -4 9 -10z m-250 -11 c11 -17 -1 -21 -15 -4 -8 9 -8 15 -2 15 6 0 14 -5 17
-11z m130 -1 c2 -2 0 -10 -5 -17 -7 -12 -14 -12 -42 -1 -53 21 -54 29 -4 25
26 -1 49 -5 51 -7z m1095 -18 c0 -11 -4 -20 -10 -20 -5 0 -10 9 -10 20 0 11 5
20 10 20 6 0 10 -9 10 -20z m-333 -32 c-3 -8 -6 -5 -6 6 -1 11 2 17 5 13 3 -3
4 -12 1 -19z m-1397 -22 c0 -2 -9 -2 -20 1 -11 3 -20 9 -20 15 0 5 9 4 20 -2
11 -6 20 -12 20 -14z m2197 -8 c-3 -8 -6 -5 -6 6 -1 11 2 17 5 13 3 -3 4 -12
1 -19z m-2207 -63 c-15 -18 -36 -19 -46 -3 -5 8 0 9 14 6 12 -4 22 -2 22 3 0
5 5 9 11 9 8 0 8 -5 -1 -15z m1857 -27 c-3 -8 -6 -5 -6 6 -1 11 2 17 5 13 3
-3 4 -12 1 -19z m-1867 -38 c0 -5 -5 -10 -11 -10 -5 0 -7 5 -4 10 3 6 8 10 11
10 2 0 4 -4 4 -10z m1640 -4 c0 -9 -8 -12 -26 -8 -19 3 -22 7 -12 13 20 13 38
11 38 -5z m-1619 -29 c-10 -9 -11 -8 -5 6 3 10 9 15 12 12 3 -3 0 -11 -7 -18z
m-54 7 c-3 -3 -12 -4 -19 -1 -8 3 -5 6 6 6 11 1 17 -2 13 -5z m3 -24 c8 -5 13
-10 10 -11 -51 -8 -59 -7 -47 6 14 17 18 17 37 5z m1715 -19 c-6 -5 -25 10
-25 20 0 5 6 4 14 -3 8 -7 12 -15 11 -17z m-115 9 c0 -5 -4 -10 -9 -10 -6 0
-13 5 -16 10 -3 6 1 10 9 10 9 0 16 -4 16 -10z m435 0 c3 -6 -1 -7 -9 -4 -18
7 -21 14 -7 14 6 0 13 -4 16 -10z m-1955 -24 c0 -2 -8 -10 -17 -17 -16 -13
-17 -12 -4 4 13 16 21 21 21 13z m40 -11 c0 -8 -4 -15 -10 -15 -5 0 -7 7 -4
15 4 8 8 15 10 15 2 0 4 -7 4 -15z m1538 -10 c-3 -3 -9 2 -12 12 -6 14 -5 15
5 6 7 -7 10 -15 7 -18z m547 15 c-16 -4 -22 -8 -12 -9 27 -2 11 -18 -22 -23
-17 -2 -27 0 -24 4 3 5 -2 15 -11 21 -13 10 -5 12 42 13 44 2 50 0 27 -6z
m-475 -4 c0 -3 -4 -8 -10 -11 -5 -3 -10 -1 -10 4 0 6 5 11 10 11 6 0 10 -2 10
-4z m-1765 -27 c5 -16 12 -19 30 -15 13 3 27 2 30 -4 4 -7 13 -7 26 0 13 7 19
7 19 0 0 -5 -4 -10 -9 -10 -5 0 -17 -22 -26 -49 -9 -27 -22 -54 -28 -60 -25
-20 -65 -1 -91 44 l-18 30 23 -27 c13 -14 31 -27 39 -28 27 -4 40 0 40 11 0 6
-6 9 -12 6 -17 -6 -48 11 -48 25 0 7 4 7 13 1 41 -33 84 -14 73 31 -5 19 -12
24 -32 23 -17 -1 -31 6 -41 21 -9 12 -11 22 -5 22 6 0 14 -9 17 -21z m1735
-70 c0 -5 -11 1 -25 13 -13 11 -22 25 -19 30 3 4 0 8 -5 8 -6 0 -11 6 -11 13
0 6 14 -3 30 -22 17 -18 30 -38 30 -42z m316 56 c-11 -8 -25 -15 -30 -15 -6 1
0 7 14 15 32 19 40 18 16 0z m-2064 -16 c8 -13 24 -21 42 -21 18 0 24 -4 17
-11 -15 -15 -54 0 -74 28 -10 14 -14 25 -9 25 5 0 16 -10 24 -21z m1782 5 c3
-8 2 -12 -4 -9 -6 3 -10 10 -10 16 0 14 7 11 14 -7z m476 -9 c-7 -8 -24 -14
-39 -14 l-26 2 25 4 c14 3 29 9 35 14 15 15 19 10 5 -6z m-2282 -20 c-3 -3 -9
2 -12 12 -6 14 -5 15 5 6 7 -7 10 -15 7 -18z m612 -5 c39 -20 53 -34 56 -58 2
-13 -1 -11 -55 25 -34 23 -71 31 -71 15 0 -5 -18 -17 -39 -28 -22 -10 -42 -27
-45 -36 -5 -21 9 -24 21 -5 14 23 56 47 82 47 13 0 50 -17 80 -37 31 -21 57
-38 59 -39 2 -1 6 -18 9 -38 6 -38 -14 -86 -58 -144 -15 -19 -17 -36 -12 -95
3 -40 10 -77 15 -84 5 -7 7 -17 3 -23 -3 -5 -3 -10 2 -10 4 0 8 -15 8 -33 0
-39 -31 -89 -43 -69 -6 9 -12 6 -21 -12 -13 -23 -22 -26 -88 -27 -54 0 -67 3
-81 23 -7 10 -20 18 -27 18 -19 0 -41 53 -50 118 -4 29 -12 52 -17 52 -21 0 0
130 27 172 14 21 30 38 35 38 16 0 11 -18 -7 -29 -16 -9 -16 -10 -2 -11 18 0
33 26 23 41 -3 5 7 9 22 9 21 0 24 -3 15 -13 -11 -14 -5 -27 11 -27 5 0 6 5 3
10 -3 6 -2 10 2 10 5 0 14 -9 21 -20 28 -46 158 -3 177 59 6 21 5 23 -11 16
-11 -4 -27 -8 -36 -9 -10 0 -18 -3 -18 -6 0 -3 -10 -6 -22 -6 -71 -4 -93 -13
-68 -29 6 -3 10 -11 10 -17 0 -6 -11 -2 -23 10 -33 31 -83 44 -98 26 -12 -15
-39 -19 -39 -6 0 11 45 32 68 32 10 0 25 9 34 19 9 11 36 23 62 26 32 5 47 13
51 26 14 42 -27 52 -85 20 -49 -26 -78 -14 -72 28 5 33 31 55 55 45 9 -3 21 4
30 16 9 12 19 20 24 17 5 -3 15 -2 23 4 19 11 15 12 60 -11z m1500 -27 c0 -7
-39 17 -46 28 -3 6 5 3 20 -6 14 -10 26 -19 26 -22z m-1983 -5 c-3 -8 -6 -5
-6 6 -1 11 2 17 5 13 3 -3 4 -12 1 -19z m2023 12 c0 -5 -7 -7 -15 -4 -8 4 -15
8 -15 10 0 2 7 4 15 4 8 0 15 -4 15 -10z m-346 -26 c5 -14 4 -15 -9 -4 -17 14
-19 20 -6 20 5 0 12 -7 15 -16z m-74 -4 c0 -5 -2 -10 -4 -10 -3 0 -8 5 -11 10
-3 6 -1 10 4 10 6 0 11 -4 11 -10z m386 -17 c3 -23 4 -24 18 -11 8 7 12 16 9
20 -2 4 3 5 12 1 12 -4 13 -8 5 -13 -7 -4 -10 -12 -6 -18 13 -21 -12 -21 -40
0 -46 34 -47 35 -22 34 13 0 24 -7 24 -13z m169 10 c-11 -3 -26 -10 -32 -15
-8 -6 -13 -7 -13 -1 0 16 12 23 39 22 21 -1 22 -2 6 -6z m-525 -23 c0 -5 -2
-10 -4 -10 -3 0 -8 5 -11 10 -3 6 -1 10 4 10 6 0 11 -4 11 -10z m531 -19 c-18
-14 -21 -20 -10 -24 8 -3 9 -6 2 -6 -6 -1 -14 3 -17 8 -11 17 6 41 28 41 21 0
21 -1 -3 -19z m-221 -26 c0 -2 -9 -3 -19 -2 -11 0 -18 5 -15 9 4 6 34 0 34 -7z
m-1624 -17 c-1 -13 -10 -24 -19 -26 -20 -4 -22 13 -4 33 18 21 27 18 23 -7z
m1730 -16 c-4 -3 -14 2 -24 12 -16 18 -16 18 6 6 13 -6 21 -14 18 -18z m-2191
8 c3 -5 -1 -10 -10 -10 -9 0 -13 5 -10 10 3 6 8 10 10 10 2 0 7 -4 10 -10z
m2165 -49 l25 -24 -31 21 c-17 12 -37 29 -45 39 -13 17 -13 17 6 3 11 -8 31
-26 45 -39z m38 28 c2 6 8 8 14 5 6 -4 5 -10 -3 -15 -11 -7 -10 -11 6 -24 15
-12 11 -12 -13 2 -19 10 -39 24 -45 32 -10 12 -8 12 13 1 17 -9 25 -10 28 -1z
m-2173 -57 c-8 -8 -26 39 -19 50 5 8 11 1 16 -17 4 -16 6 -31 3 -33z m2305 47
c0 -5 6 -7 13 -3 6 4 3 -2 -7 -14 -20 -23 -41 -28 -50 -13 -4 5 3 7 14 4 11
-3 20 0 20 6 0 6 -7 11 -15 11 -8 0 -15 5 -15 10 0 6 9 10 20 10 11 0 20 -5
20 -11z m-200 -25 c0 -2 -9 0 -20 6 -11 6 -20 13 -20 16 0 2 9 0 20 -6 11 -6
20 -13 20 -16z m-355 -4 c16 -17 16 -20 3 -15 -9 4 -19 13 -22 21 -7 19 -2 18
19 -6z m316 3 c13 -16 12 -17 -3 -4 -10 7 -18 15 -18 17 0 8 8 3 21 -13z
m-1993 -7 c-7 -8 -17 -12 -22 -9 -4 3 -2 9 5 14 22 13 31 11 17 -5z m-114 -11
c11 -8 15 -15 9 -15 -19 0 -43 12 -43 21 0 13 12 11 34 -6z m2311 -23 c-7 -8
-45 10 -40 19 4 5 14 3 25 -3 11 -7 17 -14 15 -16z m58 -10 c-3 -12 -12 -22
-21 -22 -13 0 -14 -2 -3 -12 10 -11 14 -9 23 5 9 18 11 18 25 -2 13 -19 12
-24 -10 -53 -22 -30 -43 -75 -40 -88 1 -3 -10 -6 -25 -7 -21 -1 -23 1 -9 8 9
6 22 20 28 32 12 22 12 22 -9 3 -31 -27 -94 -30 -137 -5 -19 11 -38 18 -43 15
-5 -3 -9 1 -9 9 0 12 5 12 34 0 19 -8 40 -14 46 -12 7 1 11 -3 10 -9 -2 -12
39 -12 69 1 27 11 11 25 -20 19 -17 -3 -35 1 -47 11 -20 16 -20 16 0 6 19 -9
103 -7 112 3 3 2 -13 7 -34 10 -21 4 -45 12 -53 17 -11 8 -9 9 10 4 64 -16 86
-16 105 -1 20 15 19 15 -7 16 -14 0 -34 3 -44 7 -12 4 -15 3 -10 -5 11 -19
-13 -14 -50 9 -42 25 -45 35 -4 14 43 -22 49 -18 15 11 l-30 25 37 -17 c39
-18 73 -13 65 10 -4 9 1 16 11 19 22 4 22 5 15 -21z m-2375 0 c15 -12 21 -24
17 -34 -10 -26 -55 -2 -55 29 0 27 7 28 38 5z m1967 8 c3 -5 1 -10 -4 -10 -6
0 -11 5 -11 10 0 6 2 10 4 10 3 0 8 -4 11 -10z m136 -7 c13 -16 12 -17 -3 -4
-17 13 -22 21 -14 21 2 0 10 -8 17 -17z m-1978 0 c-7 -2 -19 -2 -25 0 -7 3 -2
5 12 5 14 0 19 -2 13 -5z m1957 -28 c11 -13 11 -18 0 -28 -10 -10 -11 -9 -5 2
5 9 1 19 -10 28 -11 7 -14 13 -8 13 6 0 16 -7 23 -15z m-235 -15 c10 -11 16
-20 13 -20 -3 0 -15 9 -28 20 -13 11 -19 20 -13 20 5 0 18 -9 28 -20z m-1788
-36 c-9 -10 -27 15 -21 31 7 17 8 16 16 -5 5 -13 7 -24 5 -26z m81 39 c-10 -2
-26 -2 -35 0 -10 3 -2 5 17 5 19 0 27 -2 18 -5z m2087 -11 c-3 -3 -11 0 -18 7
-9 10 -8 11 6 5 10 -3 15 -9 12 -12z m-2235 -12 c14 -11 19 -20 12 -20 -19 0
-52 19 -52 30 0 15 12 12 40 -10z m2175 8 c5 4 5 2 1 -5 -4 -7 4 -18 21 -27
15 -8 24 -15 19 -16 -15 0 -76 41 -76 52 0 7 5 7 13 -1 8 -6 18 -7 22 -3z
m-42 -16 c16 -18 16 -19 -3 -17 -11 1 -23 5 -27 10 -5 4 -2 4 6 0 11 -6 13 -4
8 8 -8 22 -4 21 16 -1z m-31 -35 c10 -10 22 -16 26 -13 4 2 8 -4 8 -14 0 -15
-3 -17 -16 -7 -34 25 -70 61 -70 70 0 10 20 -4 52 -36z m-2112 13 c29 -22 22
-36 -12 -21 l-23 12 23 -17 c27 -20 32 -70 5 -59 -10 4 -26 10 -36 12 -11 3
-16 12 -13 22 3 9 8 28 12 44 7 32 11 33 44 7z m1890 -17 c0 -16 -4 -22 -12
-18 -7 4 -5 0 5 -8 17 -14 16 -15 -3 -20 -32 -8 -25 -28 8 -21 15 4 24 3 20
-1 -4 -4 -2 -18 3 -32 7 -18 6 -30 -3 -41 -11 -13 -10 -15 5 -9 12 5 19 1 23
-11 3 -9 11 -29 19 -45 14 -27 14 -27 -13 -22 -42 8 -89 -5 -118 -32 -35 -32
-20 -43 59 -43 60 0 96 12 110 37 6 10 12 11 21 4 7 -6 37 -14 67 -17 30 -3
59 -9 64 -12 6 -3 4 1 -3 10 -10 13 -10 17 0 21 7 2 -5 12 -28 21 -29 12 -45
27 -58 54 l-17 37 23 -27 c23 -26 85 -68 102 -68 4 0 -2 9 -15 21 -24 20 -24
20 -1 9 20 -10 26 -7 23 12 0 4 6 5 14 2 8 -4 15 -1 15 5 0 6 -4 12 -10 12
-35 5 -70 20 -70 31 0 7 5 6 15 -2 8 -6 36 -14 62 -17 26 -2 52 -8 56 -13 5
-4 22 -1 38 7 17 8 32 13 34 11 2 -2 -2 -27 -9 -55 -17 -65 -78 -185 -148
-294 -51 -79 -60 -87 -104 -102 -30 -10 -65 -14 -90 -10 -24 3 -44 1 -48 -5
-7 -12 -44 -1 -116 32 -48 22 -59 33 -87 84 -15 27 -16 34 -4 41 10 7 11 13 1
31 -17 31 5 100 32 100 19 0 24 15 8 25 -12 7 9 55 24 55 6 0 4 5 -4 10 -13 8
-12 10 3 10 9 0 17 7 17 15 0 8 5 15 10 15 6 0 10 5 10 12 0 18 31 48 51 48
19 0 35 33 24 50 -10 16 -25 12 -19 -5 5 -12 0 -12 -28 -5 -18 6 -34 10 -35
10 -2 0 -3 7 -3 15 0 9 9 15 21 15 17 0 19 3 11 13 -14 16 -4 59 12 50 6 -3 6
0 -1 8 -19 19 -16 24 12 25 20 2 25 -3 25 -23z m154 -45 l27 -43 -31 35 c-27
30 -37 50 -26 50 2 0 15 -19 30 -42z m-1970 17 c11 -8 15 -15 9 -15 -19 0 -43
12 -43 21 0 13 12 11 34 -6z m2059 -29 c3 3 16 -1 29 -10 25 -18 17 -22 -13
-6 -11 6 -19 7 -19 1 0 -10 5 -12 100 -48 l65 -24 -49 4 c-55 5 -114 42 -155
97 l-25 35 30 -28 c17 -15 33 -25 37 -21z m-2045 -17 c23 -17 42 -35 42 -40 0
-5 18 -21 40 -35 67 -44 37 -39 -59 11 -92 48 -96 51 -85 79 8 22 14 21 62
-15z m1879 9 c-3 -8 -6 -5 -6 6 -1 11 2 17 5 13 3 -3 4 -12 1 -19z m268 -2
c11 -3 2 -3 -19 -1 -22 2 -44 9 -50 15 -7 7 -2 8 19 1 17 -5 39 -12 50 -15z
m68 -13 c-7 -2 -21 -2 -30 0 -10 3 -4 5 12 5 17 0 24 -2 18 -5z m-15 -20 c43
-6 70 -22 29 -18 -12 1 -36 3 -53 4 -16 0 -39 8 -50 17 -18 15 -18 15 6 9 14
-3 44 -9 68 -12z m-2212 -39 c24 -14 44 -30 44 -35 0 -9 -81 32 -104 53 -21
18 18 7 60 -18z m1914 -69 c0 -16 -27 28 -34 55 -5 19 -2 16 13 -10 11 -19 20
-39 21 -45z m50 9 c8 -14 30 -34 50 -45 29 -15 31 -18 10 -14 -14 2 -28 4 -31
4 -10 1 -60 81 -51 81 5 0 15 -12 22 -26z m-1875 -2 c-3 -3 -11 0 -18 7 -9 10
-8 11 6 5 10 -3 15 -9 12 -12z m-77 -134 c34 -21 67 -38 72 -38 12 0 13 -17 1
-24 -5 -3 -14 1 -21 9 -7 8 -16 15 -21 15 -4 0 -31 14 -60 30 -28 17 -53 29
-56 27 -2 -3 35 -26 82 -53 79 -44 86 -50 80 -74 -4 -14 -8 -26 -10 -28 -1 -2
-42 20 -91 47 -48 28 -92 51 -96 51 -12 0 -10 48 3 55 6 4 8 13 5 20 -2 7 -2
16 1 19 6 6 24 -2 111 -56z m649 35 c-5 -25 -4 -26 8 -10 18 25 25 8 10 -27
-8 -20 -14 -25 -18 -15 -3 8 -6 9 -6 2 -2 -26 19 -22 34 8 22 42 28 32 11 -17
-8 -21 -27 -73 -42 -114 -29 -81 -71 -149 -91 -150 -7 0 -13 -4 -13 -10 0 -16
-30 1 -31 19 0 13 -2 13 -6 1 -4 -8 -12 -20 -19 -27 -10 -10 -13 -9 -18 2 -3
8 -1 15 4 15 6 0 10 18 10 39 0 27 5 41 16 45 15 6 15 8 0 25 -16 17 -16 19 0
25 11 4 14 13 11 27 -3 12 -1 32 6 46 9 21 8 27 -8 39 -18 13 -18 14 4 14 26
0 51 22 51 44 0 10 6 13 16 9 9 -3 20 0 25 8 8 12 11 12 19 -1 8 -12 10 -11
10 8 0 12 5 22 11 22 7 0 9 -11 6 -27z m63 11 c0 -8 -5 -12 -10 -9 -6 4 -8 11
-5 16 9 14 15 11 15 -7z m-626 -65 c-5 -9 -64 19 -64 32 0 5 16 1 35 -8 19 -9
32 -20 29 -24z m366 21 c0 -5 -4 -10 -10 -10 -5 0 -10 5 -10 10 0 6 5 10 10
10 6 0 10 -4 10 -10z m20 -40 c0 -5 -5 -10 -11 -10 -5 0 -7 5 -4 10 3 6 8 10
11 10 2 0 4 -4 4 -10z m-495 -74 c31 -24 10 -19 -55 14 -33 17 -60 35 -60 40
0 11 80 -27 115 -54z m-57 -3 c93 -52 145 -87 135 -90 -6 -2 -42 14 -81 37
-39 22 -75 40 -80 40 -5 0 -17 9 -27 20 -26 28 -3 25 53 -7z m120 -29 c18 -8
32 -20 32 -26 0 -5 -3 -8 -7 -6 -49 24 -63 32 -63 40 0 11 2 10 38 -8z m360
-32 c-6 -23 -14 -42 -18 -42 -10 0 -19 -49 -10 -55 4 -3 11 -26 15 -51 5 -39
3 -49 -14 -65 -48 -45 -76 -8 -69 93 5 68 37 138 64 138 6 0 17 7 24 15 19 22
20 15 8 -33z m1166 -156 c-6 -27 -24 -36 -24 -12 0 7 -7 27 -15 42 -24 47 -18
59 16 27 24 -24 29 -36 23 -57z m-1551 35 c24 -13 37 -31 21 -31 -12 0 -64 35
-64 43 0 5 3 7 8 5 4 -2 19 -10 35 -17z m1337 -81 c8 -5 11 -10 5 -10 -5 0
-17 5 -25 10 -8 5 -10 10 -5 10 6 0 17 -5 25 -10z m817 -42 c-3 -7 -5 -2 -5
12 0 14 2 19 5 13 2 -7 2 -19 0 -25z m-882 -19 c11 -17 -1 -21 -15 -4 -8 9 -8
15 -2 15 6 0 14 -5 17 -11z m25 -59 c0 -5 -7 -7 -15 -4 -8 4 -15 8 -15 10 0 2
7 4 15 4 8 0 15 -4 15 -10z m-34 -82 c-11 -30 -38 -39 -33 -10 4 25 14 39 30
39 11 0 12 -6 3 -29z m-266 -28 c0 -5 -4 -10 -10 -10 -5 0 -10 5 -10 10 0 6 5
10 10 10 6 0 10 -4 10 -10z m-616 -45 c-4 -8 -10 -15 -15 -15 -4 0 -6 7 -3 15
4 8 10 15 15 15 4 0 6 -7 3 -15z m1640 -1 c3 -8 2 -12 -4 -9 -6 3 -10 10 -10
16 0 14 7 11 14 -7z m-1264 -4 c0 -5 -4 -10 -10 -10 -5 0 -10 5 -10 10 0 6 5
10 10 10 6 0 10 -4 10 -10z m1204 -26 c3 -8 2 -12 -4 -9 -6 3 -10 10 -10 16 0
14 7 11 14 -7z m60 -23 c-2 -3 -12 3 -22 13 -16 17 -16 18 5 5 12 -7 20 -15
17 -18z m-1640 -33 c7 -5 5 -8 -6 -8 -22 0 -30 14 -21 37 7 17 8 17 11 -2 3
-11 9 -23 16 -27z m1701 12 c-3 -5 -10 -10 -16 -10 -5 0 -9 5 -9 10 0 6 7 10
16 10 8 0 12 -4 9 -10z m-55 -10 c8 -5 11 -10 5 -10 -5 0 -17 5 -25 10 -8 5
-10 10 -5 10 6 0 17 -5 25 -10z"/>
<path d="M310 2166 c0 -2 7 -7 16 -10 8 -3 12 -2 9 4 -6 10 -25 14 -25 6z"/>
<path d="M213 2153 c9 -2 23 -2 30 0 6 3 -1 5 -18 5 -16 0 -22 -2 -12 -5z"/>
<path d="M728 1853 c7 -3 16 -2 19 1 4 3 -2 6 -13 5 -11 0 -14 -3 -6 -6z"/>
<path d="M1180 1784 c-6 -14 -11 -44 -11 -67 l-2 -42 -6 47 c-6 42 -21 78 -21
50 0 -6 -7 -9 -15 -6 -8 4 -15 1 -15 -5 0 -6 7 -11 15 -11 10 0 15 -11 15 -35
0 -19 -2 -35 -4 -35 -2 0 -14 15 -25 33 -12 17 -21 25 -20 17 1 -8 -3 -28 -9
-43 -7 -16 -12 -33 -12 -38 0 -6 -4 -7 -10 -4 -5 3 -10 -2 -10 -11 0 -16 -1
-16 -16 2 -15 19 -15 18 -9 -3 6 -20 3 -21 -29 -16 -41 6 -50 -11 -11 -21 14
-4 25 -11 25 -16 0 -13 -7 -13 -31 0 -28 16 -23 -5 6 -24 14 -9 25 -23 25 -31
0 -9 9 -23 20 -33 11 -9 23 -34 27 -55 3 -20 9 -40 13 -42 7 -4 44 34 110 115
20 24 35 32 75 36 45 6 54 3 83 -21 18 -15 32 -22 32 -17 0 6 -14 20 -31 32
-25 19 -40 22 -91 18 -44 -3 -61 -1 -65 9 -12 30 66 78 100 61 14 -7 17 -4 18
14 0 22 1 22 8 3 5 -12 4 -23 -3 -27 -8 -5 -7 -11 2 -20 9 -9 17 -10 30 -1 23
14 70 -17 57 -37 -5 -8 -4 -11 2 -7 6 4 16 0 23 -8 7 -8 17 -12 22 -9 5 3 1
13 -9 21 -13 10 -15 16 -5 19 22 10 13 24 -15 24 -19 0 -24 3 -15 9 11 7 11 9
-2 14 -8 3 -24 4 -36 2 -11 -2 -20 0 -20 6 0 8 15 13 33 10 8 -1 37 24 37 32
0 2 -12 2 -27 -1 -20 -4 -25 -2 -21 9 4 11 -2 15 -21 14 -19 0 -26 5 -25 18 2
18 -21 24 -31 7 -3 -5 -12 -7 -20 -4 -8 4 -12 11 -9 16 4 6 -4 5 -16 -2 -25
-13 -22 -2 8 33 15 16 14 17 -4 11 -10 -4 -27 -14 -37 -22 -17 -15 -17 -13
-13 21 5 43 0 48 -14 11z m-59 -116 c7 -18 15 -37 17 -43 2 -5 -8 7 -22 27
-28 40 -31 48 -17 48 5 0 15 -15 22 -32z m59 -119 c0 -16 -28 -41 -41 -37 -8
3 -6 9 4 20 9 8 13 18 10 22 -4 3 1 6 10 6 10 0 17 -5 17 -11z"/>
<path d="M480 1770 c0 -5 4 -10 9 -10 6 0 13 5 16 10 3 6 -1 10 -9 10 -9 0
-16 -4 -16 -10z"/>
<path d="M510 1730 c0 -5 5 -10 11 -10 5 0 7 5 4 10 -3 6 -8 10 -11 10 -2 0
-4 -4 -4 -10z"/>
<path d="M470 1600 c0 -5 5 -10 11 -10 5 0 7 5 4 10 -3 6 -8 10 -11 10 -2 0
-4 -4 -4 -10z"/>
<path d="M880 1590 c0 -16 5 -21 23 -18 12 2 22 10 22 18 0 8 -10 16 -22 18
-18 3 -23 -2 -23 -18z"/>
<path d="M1432 1500 c9 -13 23 -20 43 -19 l30 1 -32 9 c-18 5 -33 14 -33 19 0
6 -5 10 -10 10 -6 0 -5 -8 2 -20z"/>
<path d="M1185 1482 c-16 -11 -37 -27 -45 -37 -14 -17 -13 -18 10 -11 14 4 49
9 78 13 37 4 52 10 52 21 0 10 4 12 13 5 16 -13 82 -25 133 -23 22 0 52 -4 66
-9 33 -12 111 5 134 30 17 19 17 19 -17 2 -48 -25 -205 -22 -225 4 -13 17 -14
17 -7 -2 5 -16 4 -18 -8 -9 -12 10 -115 34 -143 34 -6 0 -24 -8 -41 -18z"/>
<path d="M1358 1414 c-9 -9 -29 -19 -45 -21 -45 -7 -147 -6 -171 1 -13 5 -22
3 -22 -3 0 -6 21 -12 48 -12 26 -1 39 -3 30 -6 -10 -2 -18 -8 -18 -13 0 -15
30 -20 58 -9 15 6 37 12 48 13 12 2 36 13 53 25 18 13 44 27 59 31 l27 8 -25
1 c-14 1 -33 -6 -42 -15z"/>
<path d="M1571 1419 c-66 -13 -64 -22 4 -14 63 8 111 25 65 24 -14 -1 -45 -5
-69 -10z"/>
<path d="M1460 1396 c0 -2 9 -6 20 -9 11 -3 18 -1 14 4 -5 9 -34 13 -34 5z"/>
<path d="M1565 1380 c3 -5 36 -9 73 -9 66 1 66 2 22 10 -64 11 -102 11 -95 -1z"/>
<path d="M1327 1364 c-16 -9 -27 -18 -24 -20 3 -3 20 4 38 15 39 24 28 28 -14
5z"/>
<path d="M1265 1350 c-3 -5 -1 -10 4 -10 6 0 11 5 11 10 0 6 -2 10 -4 10 -3 0
-8 -4 -11 -10z"/>
<path d="M1563 1353 c4 -6 28 -14 54 -17 27 -4 56 -9 66 -12 9 -3 17 -1 17 4
0 5 -17 12 -37 15 -21 4 -53 10 -72 13 -23 5 -32 4 -28 -3z"/>
<path d="M1560 1330 c8 -5 20 -10 25 -10 6 0 3 5 -5 10 -8 5 -19 10 -25 10 -5
0 -3 -5 5 -10z"/>
<path d="M1030 1307 c0 -9 7 -22 15 -31 14 -13 13 -16 -6 -27 -17 -9 -19 -13
-8 -19 7 -5 18 -6 24 -3 5 4 7 2 2 -2 -4 -5 10 -27 31 -49 22 -23 46 -61 54
-86 9 -25 26 -72 38 -105 15 -39 24 -92 28 -152 4 -82 7 -95 30 -115 24 -23
25 -23 13 -1 -7 13 -7 24 -2 28 6 3 4 17 -5 33 -18 35 -18 46 1 38 17 -6 20
11 6 34 -6 8 -7 18 -4 23 3 5 9 3 14 -4 6 -9 8 -2 8 21 -1 22 -3 28 -6 15 -4
-14 -10 -3 -20 35 -7 30 -18 57 -23 60 -5 3 -16 23 -25 43 -9 21 -20 35 -26
32 -5 -4 -9 -3 -7 2 1 4 -9 30 -21 56 -13 26 -23 59 -23 72 0 13 -5 23 -10 22
-6 -1 -25 20 -44 47 -19 26 -34 41 -34 33z"/>
<path d="M863 1159 c14 -8 22 -8 30 0 8 8 3 11 -18 11 -26 -1 -28 -2 -12 -11z"/>
<path d="M1157 634 c3 -7 9 -14 14 -14 14 0 10 17 -5 23 -10 4 -13 1 -9 -9z"/>
<path d="M1592 560 c2 -8 10 -15 17 -15 6 0 16 -7 22 -15 8 -12 10 -12 7 -1
-2 8 -15 21 -28 30 -20 13 -22 13 -18 1z"/>
<path d="M1425 420 c3 -5 8 -10 11 -10 2 0 4 5 4 10 0 6 -5 10 -11 10 -5 0 -7
-4 -4 -10z"/>
<path d="M1065 290 c3 -5 8 -10 11 -10 2 0 4 5 4 10 0 6 -5 10 -11 10 -5 0 -7
-4 -4 -10z"/>
<path d="M1280 278 c0 -12 7 -18 23 -17 15 0 17 2 7 6 -8 3 -18 11 -22 17 -5
7 -8 4 -8 -6z"/>
<path d="M720 1422 c0 -11 58 -34 77 -30 11 2 0 10 -29 20 -27 9 -48 14 -48
10z"/>
<path d="M608 1333 c7 -3 16 -2 19 1 4 3 -2 6 -13 5 -11 0 -14 -3 -6 -6z"/>
<path d="M543 1244 c-17 -17 -16 -24 1 -24 15 0 30 27 18 34 -4 2 -13 -2 -19
-10z"/>
<path d="M2312 900 c-7 -12 -10 -25 -8 -29 3 -5 -4 -17 -15 -27 -12 -11 -32
-38 -46 -61 -14 -24 -38 -54 -55 -68 -17 -14 -28 -28 -26 -31 15 -14 177 195
178 229 0 14 -15 7 -28 -13z"/>
<path d="M2430 2569 c0 -16 4 -28 9 -24 5 3 12 1 16 -4 3 -5 -3 -14 -12 -20
-10 -6 -13 -11 -7 -11 7 0 15 -17 19 -37 4 -21 12 -44 17 -51 6 -7 11 -26 10
-43 0 -19 3 -27 10 -23 7 5 9 0 6 -14 -4 -13 0 -23 10 -27 8 -3 12 -8 9 -12
-4 -3 -2 -15 4 -26 8 -14 8 -18 0 -13 -17 11 -13 -3 10 -35 11 -16 17 -33 14
-39 -3 -5 -1 -10 5 -10 7 0 10 -7 6 -15 -3 -8 -2 -15 3 -15 5 0 11 -18 15 -40
8 -51 26 -43 26 10 0 31 -3 38 -15 34 -17 -7 -21 11 -5 21 16 10 11 44 -10 65
-10 10 -15 22 -10 25 11 7 -8 65 -22 65 -5 0 -6 9 -3 20 4 11 0 33 -8 49 -9
18 -11 34 -6 42 7 11 9 9 9 -6 0 -11 7 -31 16 -43 8 -12 13 -26 9 -31 -3 -5 0
-21 6 -35 9 -19 15 -23 24 -16 9 8 13 53 14 150 1 135 0 140 -20 140 -16 0
-19 -4 -14 -21 5 -15 4 -19 -4 -15 -6 4 -11 14 -11 22 0 9 -11 14 -34 14 l-34
0 19 -62 c10 -35 19 -67 19 -73 -1 -21 -30 30 -30 51 0 13 -4 26 -10 29 -5 3
-10 17 -10 31 0 17 -5 24 -20 24 -16 0 -20 -7 -20 -31z m110 -18 c0 -6 -4 -13
-10 -16 -5 -3 -10 1 -10 9 0 9 5 16 10 16 6 0 10 -4 10 -9z m50 -43 c0 -10 -6
-18 -13 -18 -7 0 -13 8 -14 18 -1 10 5 19 13 19 8 0 14 -9 14 -19z m-30 -38
c0 -5 -4 -10 -10 -10 -5 0 -10 5 -10 10 0 6 5 10 10 10 6 0 10 -4 10 -10z m20
-80 c0 -5 -4 -10 -10 -10 -5 0 -10 5 -10 10 0 6 5 10 10 10 6 0 10 -4 10 -10z"/>
<path d="M516 2572 c-3 -6 -2 -13 4 -17 6 -4 8 -11 5 -16 -4 -5 0 -9 7 -9 7 0
24 -3 38 -6 23 -5 24 -5 5 7 -11 6 -27 21 -36 32 -10 12 -19 16 -23 9z"/>
<path d="M2201 2563 c0 -4 4 -17 9 -28 8 -19 9 -19 9 2 1 12 -3 25 -9 28 -5 3
-10 3 -9 -2z"/>
<path d="M475 2540 l-30 -8 33 -1 c17 0 32 4 32 9 0 6 -1 9 -2 9 -2 -1 -16 -5
-33 -9z"/>
<path d="M2230 2531 c0 -5 5 -13 10 -16 6 -3 10 -2 10 4 0 5 -4 13 -10 16 -5
3 -10 2 -10 -4z"/>
<path d="M85 2520 c-3 -5 1 -10 10 -10 9 0 13 5 10 10 -3 6 -8 10 -10 10 -2 0
-7 -4 -10 -10z"/>
<path d="M166 2512 c12 -12 24 -25 26 -29 1 -4 17 -19 33 -33 l30 -25 -28 31
c-15 17 -25 33 -21 36 3 4 -9 14 -28 23 l-33 17 21 -20z"/>
<path d="M515 2490 c3 -5 8 -10 11 -10 2 0 4 5 4 10 0 6 -5 10 -11 10 -5 0 -7
-4 -4 -10z"/>
<path d="M235 2480 c3 -5 8 -10 11 -10 2 0 4 5 4 10 0 6 -5 10 -11 10 -5 0 -7
-4 -4 -10z"/>
<path d="M2194 2459 c-3 -6 -20 -19 -38 -30 -17 -10 -25 -19 -19 -19 13 0 83
59 71 60 -4 0 -10 -5 -14 -11z"/>
<path d="M60 2450 c0 -5 5 -10 10 -10 6 0 10 5 10 10 0 6 -4 10 -10 10 -5 0
-10 -4 -10 -10z"/>
<path d="M1553 2453 c9 -2 23 -2 30 0 6 3 -1 5 -18 5 -16 0 -22 -2 -12 -5z"/>
<path d="M1798 2453 c7 -3 16 -2 19 1 4 3 -2 6 -13 5 -11 0 -14 -3 -6 -6z"/>
<path d="M1608 2443 c6 -2 18 -2 25 0 6 3 1 5 -13 5 -14 0 -19 -2 -12 -5z"/>
<path d="M1918 2443 c7 -3 16 -2 19 1 4 3 -2 6 -13 5 -11 0 -14 -3 -6 -6z"/>
<path d="M355 2430 c3 -5 8 -10 11 -10 2 0 4 5 4 10 0 6 -5 10 -11 10 -5 0 -7
-4 -4 -10z"/>
<path d="M1555 2420 c11 -5 27 -9 35 -9 9 0 8 4 -5 9 -11 5 -27 9 -35 9 -9 0
-8 -4 5 -9z"/>
<path d="M2188 2410 c-46 -25 -53 -35 -23 -35 13 0 21 4 17 9 -3 5 2 6 12 3
11 -4 15 -3 11 4 -4 6 1 17 11 24 26 20 16 18 -28 -5z"/>
<path d="M1848 2413 c7 -3 16 -2 19 1 4 3 -2 6 -13 5 -11 0 -14 -3 -6 -6z"/>
<path d="M2300 2415 c0 -2 10 -10 23 -16 20 -11 21 -11 8 4 -13 16 -31 23 -31
12z"/>
<path d="M1918 2403 c7 -3 16 -2 19 1 4 3 -2 6 -13 5 -11 0 -14 -3 -6 -6z"/>
<path d="M823 2393 c9 -2 23 -2 30 0 6 3 -1 5 -18 5 -16 0 -22 -2 -12 -5z"/>
<path d="M40 2380 c0 -5 7 -10 16 -10 8 0 12 5 9 10 -3 6 -10 10 -16 10 -5 0
-9 -4 -9 -10z"/>
<path d="M2221 2377 c-15 -19 -109 -69 -145 -78 l-31 -7 31 -1 c39 -1 101 29
138 68 17 17 27 31 24 31 -3 0 -11 -6 -17 -13z"/>
<path d="M713 2373 c9 -2 23 -2 30 0 6 3 -1 5 -18 5 -16 0 -22 -2 -12 -5z"/>
<path d="M1868 2373 c7 -3 16 -2 19 1 4 3 -2 6 -13 5 -11 0 -14 -3 -6 -6z"/>
<path d="M198 2355 c6 -11 27 -36 48 -55 42 -38 30 -19 -24 38 -19 21 -30 28
-24 17z"/>
<path d="M773 2363 c9 -2 25 -2 35 0 9 3 1 5 -18 5 -19 0 -27 -2 -17 -5z"/>
<path d="M1580 2364 c0 -6 65 -34 77 -34 9 1 -58 39 -69 40 -5 0 -8 -2 -8 -6z"/>
<path d="M1918 2363 c6 -2 18 -2 25 0 6 3 1 5 -13 5 -14 0 -19 -2 -12 -5z"/>
<path d="M2150 2360 c-9 -6 -10 -10 -3 -10 6 0 15 5 18 10 8 12 4 12 -15 0z"/>
<path d="M2259 2363 c-1 -5 -1 -12 0 -17 1 -4 -6 -15 -16 -23 -17 -13 -16 -13
4 -4 13 7 21 19 20 31 -1 20 -6 27 -8 13z"/>
<path d="M330 2335 c14 -16 26 -32 28 -34 1 -2 4 -2 7 1 3 2 -10 18 -28 34
l-32 29 25 -30z"/>
<path d="M639 2347 c4 -4 64 -6 132 -5 l124 3 -132 5 c-73 3 -129 1 -124 -3z"/>
<path d="M2287 2349 c7 -7 15 -10 18 -7 3 3 -2 9 -12 12 -14 6 -15 5 -6 -5z"/>
<path d="M550 2330 c8 -5 24 -10 34 -10 26 0 18 6 -19 14 -22 5 -26 4 -15 -4z"/>
<path d="M1963 2333 c9 -2 23 -2 30 0 6 3 -1 5 -18 5 -16 0 -22 -2 -12 -5z"/>
<path d="M2188 2313 c-38 -26 -172 -61 -243 -64 l-40 -1 43 -11 c34 -8 46 -7
52 3 6 10 9 10 13 -1 4 -12 7 -12 15 -1 5 7 30 15 55 16 26 2 53 8 60 15 8 6
16 9 18 8 2 -2 20 11 39 30 41 39 38 41 -12 6z"/>
<path d="M1676 2318 c7 -12 104 -60 112 -56 4 2 -21 17 -55 33 -34 17 -59 27
-57 23z"/>
<path d="M1730 2315 c14 -8 30 -14 35 -14 6 0 -1 6 -15 14 -14 8 -29 14 -35
14 -5 0 1 -6 15 -14z"/>
<path d="M2302 2318 c-7 -7 -12 -18 -12 -25 0 -11 4 -11 20 -1 11 7 20 18 20
25 0 16 -12 17 -28 1z"/>
<path d="M20 2310 c0 -5 5 -10 10 -10 6 0 10 5 10 10 0 6 -4 10 -10 10 -5 0
-10 -4 -10 -10z"/>
<path d="M1508 2268 c120 -98 227 -192 224 -200 -1 -5 2 -7 8 -3 6 4 31 -6 57
-21 61 -35 160 -41 210 -12 18 11 33 24 33 29 0 12 -11 11 -40 -6 -36 -21
-144 -20 -161 2 -13 15 -12 15 10 4 13 -7 35 -10 50 -7 14 4 44 9 66 12 41 6
115 41 115 56 0 5 -13 2 -30 -7 -18 -9 -56 -15 -100 -15 -61 0 -86 6 -167 40
-52 22 -117 56 -145 75 -27 20 -52 34 -55 31 -7 -7 72 -63 118 -83 22 -9 39
-23 39 -30 0 -16 -53 16 -169 104 -86 65 -136 89 -63 31z m259 -145 c-4 -3 1
-12 11 -20 15 -13 15 -13 -6 -3 -19 9 -23 30 -5 30 4 0 3 -3 0 -7z"/>
<path d="M1674 2291 c12 -19 119 -69 162 -76 28 -4 18 2 -40 25 -43 16 -90 37
-104 46 -13 9 -21 11 -18 5z"/>
<path d="M2197 2282 c-29 -31 -102 -62 -155 -64 -60 -3 -68 -14 -16 -20 65 -8
93 3 147 53 29 26 49 48 46 49 -3 0 -13 -8 -22 -18z"/>
<path d="M1903 2278 c-6 -10 51 -9 102 2 35 7 32 8 -28 6 -38 0 -71 -4 -74 -8z"/>
<path d="M2580 2273 c0 -10 5 -25 10 -33 7 -11 10 -7 10 18 0 17 -4 32 -10 32
-5 0 -10 -8 -10 -17z"/>
<path d="M1700 2217 c14 -8 41 -17 60 -21 l35 -6 -35 14 c-19 7 -46 16 -60 20
l-25 7 25 -14z"/>
<path d="M70 2210 c0 -5 5 -10 11 -10 5 0 7 5 4 10 -3 6 -8 10 -11 10 -2 0 -4
-4 -4 -10z"/>
<path d="M2125 2196 c-30 -15 -60 -21 -125 -22 -104 -2 -114 -6 -35 -13 82 -8
159 7 187 36 25 27 25 27 -27 -1z"/>
<path d="M2306 2200 c39 -45 67 -114 74 -180 l7 -65 2 62 c1 47 -6 79 -26 127
-14 36 -30 63 -35 60 -5 -3 -17 0 -26 7 -10 8 -8 3 4 -11z"/>
<path d="M1830 2180 c8 -5 20 -10 25 -10 6 0 3 5 -5 10 -8 5 -19 10 -25 10 -5
0 -3 -5 5 -10z"/>
<path d="M1740 2177 c0 -7 141 -59 146 -54 3 3 -19 14 -48 25 -71 26 -98 34
-98 29z"/>
<path d="M2065 2150 c-11 -5 -54 -9 -94 -9 -60 -1 -72 -4 -63 -13 23 -23 192
-2 192 23 0 11 -8 10 -35 -1z"/>
<path d="M2589 2053 c0 -5 -2 -18 -3 -30 -2 -13 1 -23 6 -23 4 0 8 14 8 30 0
26 -8 44 -11 23z"/>
<path d="M2316 1995 c8 -37 14 -45 14 -19 0 10 -5 26 -10 34 -8 11 -9 7 -4
-15z"/>
<path d="M2060 1988 c0 -3 7 -19 15 -34 8 -16 15 -22 15 -14 -1 8 -7 24 -15
34 -8 11 -15 17 -15 14z"/>
<path d="M2352 1955 c0 -16 2 -22 5 -12 2 9 2 23 0 30 -3 6 -5 -1 -5 -18z"/>
<path d="M2156 1945 c3 -11 17 -69 31 -129 24 -101 58 -184 71 -172 3 3 0 11
-5 18 -13 17 -43 112 -42 135 0 16 1 16 9 -2 7 -16 9 -17 9 -3 1 9 -2 24 -5
33 -6 13 -9 14 -16 3 -5 -8 -7 1 -6 25 1 24 -3 41 -12 47 -7 4 -19 21 -27 37
-7 15 -11 19 -7 8z"/>
<path d="M2381 1909 c0 -25 -4 -68 -8 -95 l-8 -49 -6 40 c-5 33 -5 -17 0 -132
1 -7 6 -13 12 -13 6 0 8 9 4 21 -4 12 -2 64 5 118 7 53 10 110 8 126 -4 23 -5
19 -7 -16z"/>
<path d="M2211 1938 c-1 -4 4 -19 10 -35 6 -15 14 -53 19 -83 l9 -55 -3 55
c-2 44 -32 144 -35 118z"/>
<path d="M2311 1904 c0 -11 3 -14 6 -6 3 7 2 16 -1 19 -3 4 -6 -2 -5 -13z"/>
<path d="M2363 1885 c0 -22 2 -30 4 -17 2 12 2 30 0 40 -3 9 -5 -1 -4 -23z"/>
<path d="M2320 1823 c0 -33 -3 -80 -6 -104 -4 -29 -1 -50 8 -62 11 -15 13 0
11 99 -2 120 -13 175 -13 67z"/>
<path d="M2395 1778 c-4 -18 -9 -42 -11 -53 -4 -15 -3 -17 4 -5 11 17 25 90
18 90 -2 0 -7 -15 -11 -32z"/>
<path d="M1960 1784 c0 -8 5 -12 10 -9 6 3 10 10 10 16 0 5 -4 9 -10 9 -5 0
-10 -7 -10 -16z"/>
</g>
</svg>
